<svg xmlns="http://www.w3.org/2000/svg" width="252.308" height="251.538"><path fill="#00b8ee" d="M130.421 8.225l-54.25 41.733.883 20.07 30.902-12.516 7.653 4.71 14.812-23.463 21.188 39.648 1.963-30.943z"/><path d="M137.386 131.678L73.064 78.409l-66.151 1.47-4.708 7.276 31.489 19.899-20.011 80.204 19.423 40.557 73.869 15.499 11.186-17.797 20.156-47.732-.931-46.107zm-34.727 105.794l-63.373-17.115-16.916-36.275 18.191-72.42-5.297 72.42 12.655 25.583 63.203 14.615-8.463 13.192z" fill="#ed1843"/><path d="M130.028 51.625l-12.36 19.422-10.3-6.375-27.076 11.187 58.897 48.752 11.637-34.239-20.798-38.747zm7.554 67.809l-26.458-23.075 3.749-20.5 12.691 24.13h16.441l-6.423 19.445z" fill="#943f98"/><path fill="#ee3d96" d="M160.037 52.411l29.93 19.214 26.487 57.599-46.107 43.946-25.709 1.934 3.932-57.751 9.316-27.469z"/><path fill="#ffca06" d="M206.938 152.277l-33.55 27.369-29.683 2.498-17.305 40.763 46.793-9.416 19.816-31.198z"/><path d="M229.65 119.169l-31.099 66.314-21.141 33.747-42.919 8.493-5.348 6.074 70.927-4.316 50.031-48.758-20.451-61.554zm-30.854 101.975l-15.584.973 24.513-32.856 19.814-48.323 13.077 39.396-41.82 40.81z" fill="#00ae4d"/><path fill="#ffca06" d="M166.668 48.936l28.646 18.238 22.514 49.396 9.416-55.821z"/></svg>