<svg data-name="Layer 1" viewBox="0 0 393.26 151.33" xmlns="http://www.w3.org/2000/svg"><defs><style>.prefix__prefix__cls-1{fill:#fff;stroke-width:0}</style></defs><path class="prefix__prefix__cls-1" d="M95.29 14.53L67.08 36.24l.46 10.43 16.07-6.5 3.98 2.44 7.7-12.2 11.02 20.62 1.02-16.09zm3.63 64.21L65.46 51.03l-34.41.77-2.45 3.79 16.38 10.35-10.41 41.72 10.1 21.09 38.42 8.06 5.82-9.26 10.49-24.83-.49-23.98zm-18.07 55.03l-32.96-8.9-8.8-18.87 9.46-37.67L45.79 106l6.58 13.31 32.87 7.6-4.4 6.86z"/><path class="prefix__prefix__cls-1" d="M95.09 37.1l-6.43 10.1-5.36-3.32-14.08 5.82 30.63 25.36 6.05-17.81L95.08 37.1zm3.93 35.27l-13.76-12 1.95-10.66 6.6 12.55h8.55l-3.34 10.11zm11.68-34.86l15.56 10 13.78 29.95-23.98 22.86-13.37 1.01 2.04-30.04L109.58 57z"/><path class="prefix__prefix__cls-1" d="M135.09 89.45l-17.45 14.24-15.44 1.3-9 21.2 24.34-4.9 10.31-16.22z"/><path class="prefix__prefix__cls-1" d="M146.9 72.23l-16.18 34.49-10.99 17.55-22.32 4.42-2.78 3.16 36.89-2.25 26.02-25.36-10.64-32.02zm-16.04 53.04l-8.11.51 12.75-17.09 10.31-25.13 6.8 20.49-21.75 21.23zM114.15 35.7l14.9 9.49 11.71 25.69 4.89-29.03zm63.93 68.77c.96 1.08 2.34 1.78 3.86 1.78 2.02 0 3.28-1.08 3.28-2.64 0-1.64-1.06-2.18-2.36-2.76l-2-.9c-1.16-.5-2.68-1.32-2.68-3.28s1.64-3.24 3.84-3.24c1.58 0 2.86.72 3.66 1.58l-.52.62c-.78-.82-1.82-1.36-3.14-1.36-1.74 0-2.92.92-2.92 2.36 0 1.52 1.32 2.1 2.28 2.54l2 .88c1.48.66 2.78 1.48 2.78 3.5s-1.66 3.54-4.22 3.54c-1.92 0-3.42-.82-4.46-1.98l.6-.64zm14.04-7.46c2.32 0 4.32 1.84 4.32 5.06s-2 5.02-4.32 5.02-4.3-1.84-4.3-5.02 2-5.06 4.3-5.06zm0 9.3c1.94 0 3.4-1.72 3.4-4.24s-1.46-4.28-3.4-4.28-3.38 1.74-3.38 4.28 1.44 4.24 3.38 4.24zm10.6-9.3c1.32 0 2.18.58 2.82 1.18l-.52.62c-.62-.58-1.34-1.02-2.28-1.02-1.96 0-3.48 1.74-3.48 4.28s1.38 4.24 3.48 4.24c1.02 0 1.9-.5 2.56-1.1l.46.6c-.82.74-1.84 1.28-3.06 1.28-2.48 0-4.36-1.84-4.36-5.02s2.04-5.06 4.38-5.06zm4.88-2.86c0-.5.36-.8.8-.8s.8.3.8.8c0 .46-.36.78-.8.78s-.8-.32-.8-.78zm.34 3.1h.88v9.6h-.88v-9.6zm10.06 3.58c.04-1.46-.38-3.04-2.26-3.04-1.3 0-2.42.64-3.06 1.12l-.4-.66c.68-.48 2-1.24 3.56-1.24 2.28 0 3.04 1.64 3.04 3.7v6.14h-.74l-.1-1.24H218c-.98.78-2.14 1.48-3.4 1.48-1.52 0-2.8-.82-2.8-2.64 0-2.12 1.94-3.14 6.2-3.62zm-3.26 5.5c1.1 0 2.08-.54 3.26-1.56v-3.26c-3.94.46-5.28 1.38-5.28 2.9 0 1.38.92 1.92 2.02 1.92zm7.38-13.86h.88v13.22c0 .42.18.62.42.62.08 0 .16 0 .36-.04l.16.72c-.18.06-.36.1-.64.1-.78 0-1.18-.48-1.18-1.52v-13.1zm8.46 1.2h3.06c4.06 0 5.98 2.56 5.98 6.54s-1.92 6.64-5.96 6.64h-3.08V93.67zm2.96 12.4c3.58 0 5.12-2.42 5.12-5.86s-1.54-5.76-5.12-5.76h-2.04v11.62h2.04zm12.22-9.06c2.28 0 3.68 1.62 3.68 4.44 0 .24 0 .48-.04.72h-6.92c.04 2.42 1.46 4.16 3.62 4.16 1.04 0 1.86-.34 2.58-.86l.36.68c-.76.46-1.62.94-3.02.94-2.46 0-4.44-1.88-4.44-5.02s2.04-5.06 4.18-5.06zm2.84 4.48c0-2.46-1.1-3.72-2.82-3.72s-3.1 1.42-3.3 3.72h6.12zm3.26-4.24h.76l.08 1.48h.06c.86-.98 1.96-1.72 3.02-1.72 1.54 0 2.32.78 2.66 1.96 1.1-1.2 2.16-1.96 3.26-1.96 1.92 0 2.88 1.2 2.88 3.68v6.16h-.9v-6.04c0-2.04-.68-3-2.14-3-.9 0-1.82.6-2.88 1.8v7.24h-.88v-6.04c0-2.04-.68-3-2.16-3-.86 0-1.82.6-2.88 1.8v7.24h-.88v-9.6zm19.54-.24c2.32 0 4.32 1.84 4.32 5.06s-2 5.02-4.32 5.02-4.3-1.84-4.3-5.02 2-5.06 4.3-5.06zm0 9.3c1.94 0 3.4-1.72 3.4-4.24s-1.46-4.28-3.4-4.28-3.38 1.74-3.38 4.28 1.44 4.24 3.38 4.24zm10.6-9.3c1.32 0 2.18.58 2.82 1.18l-.52.62c-.62-.58-1.34-1.02-2.28-1.02-1.96 0-3.48 1.74-3.48 4.28s1.38 4.24 3.48 4.24c1.02 0 1.9-.5 2.56-1.1l.46.6c-.82.74-1.84 1.28-3.06 1.28-2.48 0-4.36-1.84-4.36-5.02s2.04-5.06 4.38-5.06zm5.22.24h.76l.08 1.78h.06c.64-1.18 1.58-2.02 2.72-2.02.36 0 .64.04.96.2l-.2.8c-.32-.12-.5-.16-.88-.16-.86 0-1.88.66-2.62 2.46v6.54h-.88v-9.6zm11.36 3.58c.04-1.46-.38-3.04-2.26-3.04-1.3 0-2.42.64-3.06 1.12l-.4-.66c.68-.48 2-1.24 3.56-1.24 2.28 0 3.04 1.64 3.04 3.7v6.14h-.74l-.1-1.24h-.04c-.98.78-2.14 1.48-3.4 1.48-1.52 0-2.8-.82-2.8-2.64 0-2.12 1.94-3.14 6.2-3.62zm-3.26 5.5c1.1 0 2.08-.54 3.26-1.56v-3.26c-3.94.46-5.28 1.38-5.28 2.9 0 1.38.92 1.92 2.02 1.92zm7.6-8.32h-1.5v-.68l1.52-.08.12-2.78h.76v2.78h2.78v.76h-2.78v6.26c0 1.22.3 2.04 1.62 2.04.36 0 .86-.14 1.2-.3l.24.72c-.56.2-1.16.36-1.56.36-1.86 0-2.4-1.18-2.4-2.9v-6.18zm5.5-3.86c0-.5.36-.8.8-.8s.8.3.8.8c0 .46-.36.78-.8.78s-.8-.32-.8-.78zm.34 3.1h.88v9.6h-.88v-9.6zm7.98-.24c1.32 0 2.18.58 2.82 1.18l-.52.62c-.62-.58-1.34-1.02-2.28-1.02-1.96 0-3.48 1.74-3.48 4.28s1.38 4.24 3.48 4.24c1.02 0 1.9-.5 2.56-1.1l.46.6c-.82.74-1.84 1.28-3.06 1.28-2.48 0-4.36-1.84-4.36-5.02s2.04-5.06 4.38-5.06zm9.12-3.34h3.6c2.94 0 4.7.96 4.7 3.68 0 2.58-1.76 3.84-4.7 3.84h-2.68v5.66h-.92V93.67zm3.38 6.74c2.68 0 3.98-.9 3.98-3.06s-1.3-2.9-3.98-2.9h-2.46v5.96h2.46zm12.22.42c.04-1.46-.38-3.04-2.26-3.04-1.3 0-2.42.64-3.06 1.12l-.4-.66c.68-.48 2-1.24 3.56-1.24 2.28 0 3.04 1.64 3.04 3.7v6.14h-.74l-.1-1.24h-.04c-.98.78-2.14 1.48-3.4 1.48-1.52 0-2.8-.82-2.8-2.64 0-2.12 1.94-3.14 6.2-3.62zm-3.26 5.5c1.1 0 2.08-.54 3.26-1.56v-3.26c-3.94.46-5.28 1.38-5.28 2.9 0 1.38.92 1.92 2.02 1.92zm7.4-9.08h.76l.08 1.78h.06c.64-1.18 1.58-2.02 2.72-2.02.36 0 .64.04.96.2l-.2.8c-.32-.12-.5-.16-.88-.16-.86 0-1.88.66-2.62 2.46v6.54h-.88v-9.6zm6.38.76h-1.5v-.68l1.52-.08.12-2.78h.76v2.78h2.78v.76h-2.78v6.26c0 1.22.3 2.04 1.62 2.04.36 0 .86-.14 1.2-.3l.24.72c-.56.2-1.16.36-1.56.36-1.86 0-2.4-1.18-2.4-2.9v-6.18zm5.46 12.4c1.18 0 1.98-1.08 2.46-2.54l.26-.84-3.94-9.78h.96l2.32 6.04c.3.8.68 1.84 1.04 2.68h.08c.3-.84.62-1.88.88-2.68l2.06-6.04h.9l-3.8 10.8c-.54 1.6-1.5 3.18-3.22 3.18-.36 0-.72-.08-.98-.2l.2-.78c.2.08.5.16.78.16zM198.42 78.86V60.19h-5.8v-3.01h5.8v-6.72h3.11v6.72h6.58v3.01h-6.58v18.67h7.53v3.01h-18.53v-3.01h7.88zm-8.13-5.48c-1.35-1.77-3.01-3.68-4.99-5.76v15.35h-2.97V70.03l-4.28 3.89-1.94-2.58c5.41-3.92 9.12-7.99 11.03-12.17.03-.07.03-.14.03-.17 0-.21-.17-.32-.5-.32h-9.37v-3.01h5.12v-5.31h3.01v5.31h4l1.63 1.31c-1.13 3.15-2.62 5.91-4.39 8.28 2.02 1.84 4 3.85 5.91 5.94l-2.3 2.19zm49.85-9.7l-1.31 2.12h3.4l.14-.14v-3.64l-.14-.11h-9.26v3.89h2.4c1.09-1.41 1.94-2.65 2.44-3.64l2.33 1.52zm-4.28-8.37l-4.38-2.16c-.78.5-2.12 1.27-4.07 2.16h8.45zm4.53 21.71h-17.33v1.91h17.33v-1.91zm-17.33-2.44h17.33v-1.59c0-.25-.14-.39-.43-.39h-16.51c-.28 0-.42.14-.39.39v1.59zm2.65-12.49c.67.99 1.34 2.23 1.94 3.71h2.55v-3.89h-9.44c-.11 0-.14.04-.11.11v3.64l.11.14h3.85l-1.34-2.4 2.44-1.31zm-2.65 19.31v1.27h-2.86V70.61c-.03-.28.11-.46.46-.46h22c.39 0 .6.18.6.56v11.95h-2.86v-1.27h-17.33zM245.09 68c0 .25-.14.39-.39.39h-26.38c-.25 0-.39-.14-.39-.39v-8.31c0-.25.14-.35.39-.35h26.38c.25 0 .39.11.39.35V68zm1.8-9.41c-2.61-.53-5.73-1.38-9.26-2.54v1.84h-12.02v-1.88c-2.69.88-5.8 1.73-9.41 2.48l-1.03-2.86c7.81-1.03 13.23-2.9 16.06-5.52l2.51 1.06-.25.25c4.49 2.26 9.33 3.71 14.5 4.31l-1.1 2.86zm23.4 8.1l-1.2-4.7h-8.84v4.7h10.04zm-9.3-12.73c-.5 0-.74.25-.74.74v4.28h20.3c.28 0 .46-.18.46-.5V54.7c0-.5-.21-.74-.74-.74H261zm25.96 20.8c-.21 3.22-.56 5.27-1.09 6.26-.78 1.49-1.45 1.73-2.51 1.73-.82 0-1.73-.28-2.72-.88-4.21-2.26-7.39-6.33-9.41-12.16h-10.96v8.95c5.27-1.02 8.81-1.87 10.43-2.44l.88 3.04c-4.49 1.49-10.11 2.65-16.76 3.43l-.74-3.04 3.18-.46v-27.3c0-.6.32-.92.92-.92h24.93c.64 0 .92.32.92.92v9.12c0 .67-.28.99-.96.99h-10.89l1.17 4.7h12.06v3.01h-11.1c1.84 4.99 6.54 9.55 8.45 9.55.81 0 1.02-.71 1.06-.92.18-.74.35-2.09.28-4.45l2.86.88zm20.91 3.74v-8.73h-12.45v-3.11h12.45v-7.78H294.6v-3.15h13.47c-1.13-1.49-2.16-2.65-3.08-3.46l2.41-2.12c1.27 1.13 2.62 2.72 4.03 4.7l-1.1.88h13.72v3.15h-13.08v7.78h12.38v3.11h-12.38v8.73h14.32v3.15h-31.83V78.5h14.39zm55.09 4.56c-1.7-1.13-3.15-1.95-4.28-2.4l1.06-2.51c1.41.56 3.01 1.48 4.77 2.72l-1.56 2.19zm-6.33-17.43c-.25.88-.6 1.8-1.02 2.79h3.85l.11-.14v-2.55l-.11-.11h-2.83zm-4.57 17.33c-.32-1.49-.74-2.86-1.17-3.96l2.62-.67 1.2 4.17-2.65.46zm-2.33-17.33v2.79h3.11l1.2-2.79h-4.31zm-2.76 2.79v-2.79h-4.18l1.13 2.79h3.04zm-4.21 13.8c.43-1.45.78-2.76.96-3.89l2.62.74-1.03 4.03-2.54-.88zm13.51-23.13h-15.31l-.07.11v1.31l.07.14h15.31l.1-.14V59.2l-.1-.11zm2.83 3.11c0 .21-.11.32-.35.32h-20.3c-.21 0-.32-.11-.32-.32v-4.7c0-.21.11-.32.32-.32h20.3c.25 0 .35.11.35.32v4.7zm-17.86 6.22l-1.2-2.79h-2.55l-.07.11v2.55l.07.14h3.75zm12.45-14.85c1.02-1.31 1.8-2.4 2.26-3.29l2.33 1.52-1.13 1.77h5.41l2.23 1.13c-.04 1.55-.39 3.36-1.06 5.48l-2.62-.81c.53-1.66.78-2.65.78-2.97 0-.21-.11-.35-.32-.35h-25.71c-.18 0-.25.07-.25.25v3.68h-2.72v-5.91c0-.32.18-.5.5-.5h6.01l-1.52-1.63 2.05-1.84c.95.82 1.87 1.95 2.86 3.36l-.14.11h4.24v-3.36h2.9v3.36h3.89zm-6.72 21.71v-1.34h-11.81v-2.33h11.81v-1.13h-11.95c-.21 0-.32-.1-.32-.35V63.9c0-.18.11-.28.32-.28h26.91c.25 0 .35.11.35.28v6.23c0 .25-.1.35-.35.35h-12.2v1.13h12.13v2.33h-12.13v1.34h14.07v2.44h-30.98v-2.44h14.15zm-8.27 4.74c-1.77 1.45-3.61 2.55-5.52 3.15-.18-1.06-.46-1.94-.81-2.61 1.66-.5 3.18-1.42 4.49-2.72l1.84 2.19z"/></svg>