<?xml version="1.0" encoding="utf-8"?>
<!-- Generator: Adobe Illustrator 16.0.0, SVG Export Plug-In . SVG Version: 6.00 Build 0)  -->
<!DOCTYPE svg PUBLIC "-//W3C//DTD SVG 1.1//EN" "http://www.w3.org/Graphics/SVG/1.1/DTD/svg11.dtd">
<svg version="1.1" id="圖層_1" xmlns="http://www.w3.org/2000/svg" xmlns:xlink="http://www.w3.org/1999/xlink" x="0px" y="0px"
	 width="1024px" height="512px" viewBox="0 0 1024 512" enable-background="new 0 0 1024 512" xml:space="preserve">
<g>
	<polygon fill="#00ADEB" points="288.763,394.269 268.357,490.82 288.118,512 310.28,469.341 323.084,467.346 317.351,427.747 
		377.711,451.385 350.893,415.614 	"/>
	<path fill="#E60035" d="M120.229,325.063L33.32,408.42l-8.792,94.997l9.644,7.941l33.695-41.827l111.591,41.881l61.289-21.135
		l34.377-103.259l-23.65-18.952l-65.053-36.742L120.229,325.063z M266.046,392.24l-34.96,87.954l-54.75,18.253L75.604,460.452
		l102.857,19.522l38.731-13.908l31.352-88.125L266.046,392.24z"/>
	<path fill="#97308D" d="M376.487,439.28l4.121,32.94l-17.302,2.38l-19.798,37.317l110.237,0.035l-18.536-48.735L376.487,439.28z
		 M447.204,507.678l-50.602-1.319l-14.677-26.223l36.275,15.146l18.266-15.111L447.204,507.678z"/>
	<polygon fill="#E62E8B" points="608.309,295.56 646.934,329.301 672.52,417.054 597.463,469.981 560.383,467.293 578.213,385.762 
		597.311,348.555 	"/>
	<polygon fill="#FDD000" points="633.334,505.535 574.127,485.743 548.209,451.491 485.195,461.813 532.73,511.58 586.021,511.691 	
		"/>
	<path fill="#00A33E" d="M852.514,427.961l-98.941,36.93l-55.824,13.423l-52.777-34.557l-11.637,0.863l77.406,67.117L811.469,512
		L852.514,427.961z M717.844,501.862l-17.033-14.722l58.398-9.108l69.166-29.778l-26.279,53.772L717.844,501.862z"/>
	<polygon fill="#FDD000" points="999.471,510.785 953.898,492.874 908.414,429.177 910.482,510.775 	"/>
</g>
</svg>
