<?xml version="1.0" encoding="UTF-8" standalone="no"?>
<!DOCTYPE svg PUBLIC "-//W3C//DTD SVG 1.1//EN" "http://www.w3.org/Graphics/SVG/1.1/DTD/svg11.dtd">
<svg width="100%" height="100%" viewBox="0 0 3750 1971" version="1.1" xmlns="http://www.w3.org/2000/svg" xmlns:xlink="http://www.w3.org/1999/xlink" xml:space="preserve" xmlns:serif="http://www.serif.com/" style="fill-rule:evenodd;clip-rule:evenodd;stroke-linejoin:round;stroke-miterlimit:2;">
    <g id="Page-9" serif:id="Page 9" transform="matrix(4.166667,0,0,4.166667,0,0)">
        <rect x="0" y="0" width="900" height="473" style="fill:none;"/>
        <g id="Pure">
        </g>
        <g id="Rose">
        </g>
        <g id="Pink">
        </g>
        <g id="Purple">
        </g>
        <g id="Lime">
        </g>
        <g id="Banana">
        </g>
        <g id="Sky">
        </g>
        <g id="Steel">
        </g>
        <g id="WhiteOut">
            <g transform="matrix(1,0,0,1,174.416,180.8072)">
                <path d="M0,-82.606L-63.846,-33.484L-62.807,-9.861L-26.436,-24.595L-17.43,-19.048L0,-46.668L24.941,0L27.256,-36.421L0,-82.606Z" style="fill:white;fill-rule:nonzero;"/>
            </g>
            <g transform="matrix(1,0,0,1,141.7441,187.6824)">
                <path d="M0,180.344L-74.59,160.198L-94.5,117.502L-73.086,32.268L-79.322,117.502L-64.428,147.614L9.961,164.817L0,180.344ZM40.873,55.824L-34.834,-6.875L-112.691,-5.14L-118.232,3.42L-81.17,26.842L-104.721,121.242L-81.865,168.975L5.08,187.219L18.242,166.272L41.971,110.09L40.873,55.824Z" style="fill:white;fill-rule:nonzero;"/>
            </g>
            <g transform="matrix(1,0,0,1,182.8496,155.3757)">
                <path d="M0,73.721L-31.143,46.561L-26.73,22.434L-11.795,50.832L7.557,50.832L0,73.721ZM-8.893,-6.092L-23.441,16.77L-35.563,9.266L-67.432,22.434L1.887,79.813L15.586,39.516L-8.893,-6.092Z" style="fill:white;fill-rule:nonzero;"/>
            </g>
            <g transform="matrix(1,0,0,1,209.2773,294.616)">
                <path d="M0,-144.406L35.23,-121.791L66.4,-53.998L12.135,-2.271L-18.127,0L-13.498,-67.967L-2.533,-100.299L0,-144.406Z" style="fill:white;fill-rule:nonzero;"/>
            </g>
            <g transform="matrix(1,0,0,1,264.4785,350.884)">
                <path d="M0,-83.133L-39.484,-50.918L-74.422,-47.979L-94.793,0L-39.719,-11.084L-16.391,-47.803L0,-83.133Z" style="fill:white;fill-rule:nonzero;"/>
            </g>
            <g transform="matrix(1,0,0,1,254.8965,243.6807)">
                <path d="M0,105.125L-18.344,106.271L10.508,67.6L33.828,10.725L49.225,57.092L0,105.125ZM36.314,-14.895L-0.287,63.156L-25.17,102.873L-75.686,112.871L-81.98,120.02L1.5,114.939L60.385,57.555L36.314,-14.895Z" style="fill:white;fill-rule:nonzero;"/>
            </g>
            <g transform="matrix(0.84354,0.537067,0.537067,-0.84354,244.035508,133.201216)">
                <path d="M-15.798,-25.373L24.173,-25.373L77.746,-60.182L51.812,1.192L-15.798,-25.373Z" style="fill:white;fill-rule:nonzero;"/>
            </g>
            <g transform="matrix(1,0,0,1,405.7432,161.1831)">
                <path d="M0,71.311L23.914,71.311L23.914,78.035C23.914,79.686 22.575,81.026 20.924,81.026L-37.036,81.026L-37.036,73.94C-37.036,72.488 -35.858,71.311 -34.407,71.311L-10.14,71.311L-10.14,28.926L-32.235,28.926L-32.235,22.422C-32.235,20.768 -30.895,19.428 -29.241,19.428L-10.14,19.428L-10.14,-10.129C-10.14,-11.729 -8.844,-13.025 -7.245,-13.025L0,-13.025L0,19.428L21.563,19.428L21.563,25.939C21.563,27.588 20.226,28.926 18.576,28.926L0,28.926L0,71.311ZM-51.876,4.911C-53.993,0.973 -56.646,-2.895 -59.833,-6.693C-60.886,-7.947 -60.546,-9.85 -59.123,-10.661L-54.223,-13.449L-45.884,-2.092C-44.972,-0.851 -45.317,0.905 -46.632,1.707L-51.876,4.911ZM-32.235,44.62L-36.405,50.158C-37.433,51.523 -39.469,51.561 -40.546,50.235L-48.14,40.887L-48.14,81.762C-48.14,83.417 -49.481,84.76 -51.137,84.76L-57.747,84.76L-57.747,43.342C-62.087,47.612 -66.608,51.243 -71.303,54.229L-75.465,44.411C-69.846,41.137 -64.399,36.756 -59.135,31.278C-53.868,25.799 -49.527,19.998 -46.111,13.879L-72.479,13.879L-72.479,7.506C-72.479,6.067 -71.321,4.895 -69.883,4.877L-39.175,4.483L-37.573,5.661C-35.08,7.368 -34.408,9.575 -35.544,12.278C-37.325,16.975 -40.989,23.096 -46.538,30.639C-41.916,34.766 -37.145,39.428 -32.235,44.62" style="fill:white;fill-rule:nonzero;"/>
            </g>
            <g transform="matrix(1,0,0,1,518.6826,192.2847)">
                <path d="M0,9.143C1.356,9.143 2.457,8.042 2.457,6.686L2.457,-6.121L-18.116,-6.121C-20.313,-6.121 -22.094,-4.34 -22.094,-2.143L-22.094,9.143L-9.715,9.143L-16.545,7.008L-10.994,-5.908L-2.455,-3.451L-9.287,9.143L0,9.143ZM-37.358,-24.589L-13.023,-24.589C-17.721,-27.505 -21.777,-30.601 -25.192,-33.875C-29.176,-30.248 -33.23,-27.148 -37.358,-24.589M-46.752,46.612L-6.834,46.612C-5.478,46.612 -4.377,45.511 -4.377,44.155L-4.377,40.528L-46.752,40.528L-46.752,46.612ZM-4.377,27.291L-46.752,27.291L-46.752,33.377L-4.377,33.377L-4.377,27.291ZM-48.994,-3.24L-41.844,-5.48L-38.32,2.098C-36.898,5.159 -37.82,7.223 -41.092,8.289L-43.551,9.143L-30.529,9.143L-30.529,-6.121L-50.46,-6.121C-52.657,-6.121 -54.438,-4.34 -54.438,-2.143L-54.438,9.143L-43.869,9.143C-44.726,5.159 -46.432,1.032 -48.994,-3.24M-56.895,53.549L-56.895,24.224C-56.895,22.027 -55.114,20.247 -52.917,20.247L6.086,20.247L6.086,48.639C6.086,51.35 3.888,53.549 1.176,53.549L-56.895,53.549ZM-60.842,-12.847L11.102,-12.847L-6.619,-20.744C-6.619,-18.613 -8.259,-17.541 -11.529,-17.541L-44.832,-17.541L-44.832,-20.211L-60.842,-12.847ZM-24.726,-43.889L-18.145,-41.67L-19.854,-39.638C-14.876,-35.013 -8.148,-30.742 0.318,-26.832C8.787,-22.916 17.434,-20 26.259,-18.076L21.471,-12.188C20.434,-10.913 18.72,-10.407 17.156,-10.914L11.531,-12.74L11.531,10.959C11.531,13.67 9.333,15.87 6.621,15.87L-63.193,15.87L-63.193,-11.994L-71.303,-9.324L-73.638,-12.69C-75.179,-14.913 -74.106,-18.014 -71.509,-18.767C-62.965,-21.243 -55.033,-24.428 -47.715,-28.326C-39.882,-32.56 -33.643,-37.357 -29.002,-42.714C-27.942,-43.938 -26.259,-44.406 -24.726,-43.889" style="fill:white;fill-rule:nonzero;"/>
            </g>
            <g transform="matrix(1,0,0,1,574.4053,199.2185)">
                <path d="M0,0.719L27.859,0.719L25.939,-13.697L0,-13.697L0,0.719ZM55.721,-36.752L0,-36.752L0,-22.877L53.264,-22.877C54.62,-22.877 55.721,-23.977 55.721,-25.334L55.721,-36.752ZM-10.247,30.176L-10.247,-41.268C-10.247,-43.845 -8.157,-45.933 -5.581,-45.933L65.752,-45.933L65.752,-18.607C65.752,-15.895 63.554,-13.697 60.842,-13.697L36.186,-13.697L38.213,0.719L73.545,0.719L73.545,5.334C73.545,7.911 71.456,10 68.88,10L40.773,10C43.335,17.762 46.574,24.024 50.484,28.791C54.4,33.557 58.313,35.908 62.229,35.836C63.65,35.836 64.686,34.664 65.322,32.315C66.036,29.967 66.569,26.014 66.926,20.465L72.929,23.759C74.624,24.69 75.563,26.573 75.308,28.489C74.481,34.703 73.183,39.003 71.412,41.389C69.416,44.233 66.211,45.658 61.802,45.658C55.043,45.658 48.814,42.383 43.123,35.836C37.5,29.285 33.123,20.676 29.992,10L0,10L0,33.381L27.752,26.334L28.362,31.654C28.625,33.938 27.181,36.073 24.965,36.684C4.466,42.346 -6.453,45.441 -7.798,45.977C-9.146,46.652 -10.725,45.642 -10.679,44.135L-10.247,30.176Z" style="fill:white;fill-rule:nonzero;"/>
            </g>
            <g transform="matrix(1,0,0,1,722.4541,157.8735)">
                <path d="M0,74.939L42.059,74.939L42.059,81.309C42.059,83.156 40.562,84.654 38.714,84.654L-52.514,84.654L-52.514,78.283C-52.514,76.436 -51.017,74.939 -49.17,74.939L-10.887,74.939L-10.887,51.345L-42.59,51.345L-42.59,45.084C-42.59,43.237 -41.093,41.74 -39.246,41.74L-10.887,41.74L-10.887,20.498L-47.714,20.498L-47.714,14.128C-47.714,12.282 -46.216,10.785 -44.369,10.785L-2.88,10.785C-6.788,6.589 -11.273,2.555 -16.34,-1.314C-18.146,-2.694 -18.106,-5.422 -16.243,-6.722L-11.953,-9.715C-8.397,-7.293 -4.732,-4.481 -0.959,-1.282C2.887,1.855 4.804,3.56 4.804,3.845C6.939,5.978 6.62,8.043 3.844,10.039L2.777,10.785L36.723,10.785L36.723,17.153C36.723,19 35.226,20.498 33.378,20.498L0,20.498L0,41.74L32.023,41.74L32.023,48.001C32.023,49.847 30.526,51.345 28.679,51.345L0,51.345L0,74.939Z" style="fill:white;fill-rule:nonzero;"/>
            </g>
            <g transform="matrix(1,0,0,1,844.1406,184.2407)">
                <path d="M0,7.689L6.513,10.25L-0.956,18.039L-5.651,15.798L0,7.689ZM10.144,18.039C11.498,18.039 12.597,16.94 12.597,15.585L12.597,7.156L-10.671,7.156L-10.671,18.039L10.144,18.039ZM-33.728,-11.418L-33.728,-6.62L0.646,-6.62C1.999,-6.62 3.097,-7.717 3.097,-9.071L3.097,-11.418L-33.728,-11.418ZM-30.954,18.039L-20.384,18.039L-20.384,7.156L-42.267,7.156L-42.267,18.039L-32.126,18.039L-37.04,10.783L-31.487,7.9L-29.033,11.209C-27.038,13.918 -27.679,16.193 -30.954,18.039M12.495,-4.956C12.495,-3.28 11.136,-1.92 9.46,-1.92L-42.802,-1.92L-42.802,-13.073C-42.802,-14.754 -41.438,-16.118 -39.757,-16.118L12.495,-16.118L12.495,-4.956ZM-50.485,-20.282L-50.485,-9.604L-59.772,-9.604L-59.772,-23.757C-59.772,-25.433 -58.414,-26.791 -56.738,-26.791L-41.95,-26.791L-43.997,-30.04C-45.124,-31.83 -44.121,-34.194 -42.052,-34.627L-37.144,-35.655L-31.271,-26.791L-20.384,-26.791L-20.384,-36.293L-10.245,-36.293L-10.245,-26.791L1.392,-26.791L7.259,-35.758L17.724,-33.836L12.066,-26.791L29.677,-26.791L29.677,-12.611C29.677,-10.951 28.33,-9.604 26.67,-9.604L19.964,-9.604L19.964,-20.282L-50.485,-20.282ZM31.813,37.793L31.813,40.947C31.813,42.624 30.455,43.982 28.779,43.982L-61.802,43.982L-61.802,40.827C-61.802,39.151 -60.443,37.793 -58.768,37.793L-20.384,37.793L-20.384,33.199L-54.222,33.199L-54.222,30.471C-54.222,28.795 -52.863,27.437 -51.188,27.437L-20.384,27.437L-20.384,23.166L-51.341,23.166L-51.341,5.063C-51.341,3.387 -49.982,2.029 -48.307,2.029L22.206,2.029L22.206,18.255C22.206,20.967 20.008,23.166 17.296,23.166L-10.671,23.166L-10.671,27.437L25.622,27.437L25.622,30.164C25.622,31.839 24.264,33.199 22.588,33.199L-10.671,33.199L-10.671,37.793L31.813,37.793Z" style="fill:white;fill-rule:nonzero;"/>
            </g>
            <g transform="matrix(1,0,0,1,791.0254,229.9813)">
                <path d="M0,12.796L-8.687,12.796L0.459,0.661C0.777,0.238 1.413,0 2.223,0L10.91,0L1.764,12.135C1.445,12.558 0.81,12.796 0,12.796" style="fill:white;fill-rule:nonzero;"/>
            </g>
            <g transform="matrix(1,0,0,1,867.2666,229.9813)">
                <path d="M0,12.796L8.688,12.796L-0.458,0.661C-0.777,0.238 -1.413,0 -2.223,0L-10.909,0L-1.764,12.135C-1.445,12.558 -0.81,12.796 0,12.796" style="fill:white;fill-rule:nonzero;"/>
            </g>
            <g transform="matrix(1,0,0,1,842.5937,229.9813)">
                <path d="M0,12.796L8.688,12.796L-0.459,0.661C-0.777,0.238 -1.413,0 -2.223,0L-10.909,0L-1.764,12.135C-1.445,12.558 -0.81,12.796 0,12.796" style="fill:white;fill-rule:nonzero;"/>
            </g>
            <g transform="matrix(1,0,0,1,817.9209,230.1103)">
                <path d="M0,12.796L8.687,12.796L-0.459,0.661C-0.777,0.238 -1.413,0 -2.223,0L-10.909,0L-1.764,12.136C-1.444,12.558 -0.81,12.796 0,12.796" style="fill:white;fill-rule:nonzero;"/>
            </g>
            <g transform="matrix(1,0,0,1,331.8027,307.6198)">
                <path d="M0,-13.905C0.514,-19.762 4.729,-23.512 11.13,-23.512C14.057,-23.512 16.868,-22.733 19.683,-21.454L19.033,-14.042C15.34,-15.735 13.04,-16.602 10.753,-16.602C8.558,-16.602 7.467,-15.643 7.344,-14.225C7.223,-12.854 8.083,-12.212 9.479,-11.481L13.938,-9.102C17.653,-7.135 19.284,-4.344 18.904,-0.001C18.393,5.859 14.174,9.607 7.774,9.607C4.801,9.607 1.901,8.782 -0.972,7.638L-0.312,0.089C3.485,1.646 5.832,2.562 8.162,2.562C10.356,2.562 11.451,1.554 11.583,0.046C11.715,-1.462 10.909,-2.196 9.47,-2.975L5.014,-5.352C1.385,-7.268 -0.356,-9.831 0,-13.905" style="fill:white;fill-rule:nonzero;"/>
            </g>
            <g transform="matrix(1,0,0,1,368.4395,297.3722)">
                <path d="M0,12.993C3.797,12.993 6.419,10.157 6.741,6.497C7.061,2.841 4.932,0.003 1.137,0.003C-2.659,0.003 -5.286,2.841 -5.606,6.497C-5.926,10.157 -3.795,12.993 0,12.993M14.059,6.497C13.397,14.044 7.309,19.854 -0.603,19.854C-8.514,19.854 -13.582,14.044 -12.92,6.497C-12.263,-1.05 -6.175,-6.861 1.736,-6.861C9.647,-6.861 14.717,-1.05 14.059,6.497" style="fill:white;fill-rule:nonzero;"/>
            </g>
            <g transform="matrix(1,0,0,1,401.2588,310.2759)">
                <path d="M0,-12.813C-4.342,-12.813 -7.006,-10.11 -7.327,-6.407C-7.648,-2.747 -5.465,0 -1.122,0C1.075,0 3.239,-0.69 5.496,-1.375L4.877,5.716C2.56,6.539 0.284,6.951 -2.001,6.951C-10.145,6.951 -15.33,1.416 -14.645,-6.407C-13.956,-14.231 -7.803,-19.764 0.335,-19.764C2.62,-19.764 4.825,-19.354 6.996,-18.532L6.376,-11.438C4.24,-12.126 2.194,-12.813 0,-12.813" style="fill:white;fill-rule:nonzero;"/>
            </g>
            <g transform="matrix(1,0,0,1,414.4707,316.6781)">
                <path d="M0,-34.309L7.405,-34.309L6.927,-28.821L-0.481,-28.821L0,-34.309ZM6.555,-25.616L4.312,0L-2.91,0L-0.669,-25.616L6.555,-25.616Z" style="fill:white;fill-rule:nonzero;"/>
            </g>
            <g transform="matrix(1,0,0,1,434.6123,295.862)">
                <path d="M0,16.015C2.154,16.015 4.037,14.367 4.25,11.896L4.498,9.105L0.352,10.429C-1.384,10.982 -2.652,11.896 -2.783,13.359C-2.912,14.87 -1.781,16.015 0,16.015M-2.775,6.499L4.803,4.027C4.551,2.199 3.383,1.419 0.78,1.419C-1.326,1.419 -4.071,1.927 -7.784,3.115L-7.179,-3.796C-3.943,-4.708 -0.781,-5.35 2.191,-5.35C9.969,-5.35 12.588,-0.776 12.018,5.72L10.694,20.816L3.744,20.816L4.028,17.566C2.312,19.945 -0.373,21.365 -3.484,21.365C-8.101,21.365 -10.534,18.343 -10.19,14.413C-9.851,10.525 -6.964,7.87 -2.775,6.499" style="fill:white;fill-rule:nonzero;"/>
            </g>
            <g transform="matrix(1,0,0,1,454.0303,316.6781)">
                <path d="M0,-34.309L7.227,-34.309L4.221,0L-3.003,0L0,-34.309Z" style="fill:white;fill-rule:nonzero;"/>
            </g>
            <g transform="matrix(1,0,0,1,486.9834,291.6096)">
                <path d="M0,18.115C7.045,18.115 10.551,14.638 11.037,9.056C11.527,3.476 8.631,0.004 1.59,0.004L-1.611,0.004L-3.199,18.115L0,18.115ZM2.193,-6.953C13.215,-6.953 19.51,-1.006 18.629,9.056C17.75,19.123 10.416,25.068 -0.607,25.068L-11.123,25.068L-8.316,-6.953L2.193,-6.953Z" style="fill:white;fill-rule:nonzero;"/>
            </g>
            <g transform="matrix(1,0,0,1,527.2666,306.2462)">
                <path d="M0,-4.754C0.078,-7.27 -0.955,-9.557 -4.387,-9.557C-7.863,-9.557 -9.477,-7.27 -9.832,-4.754L0,-4.754ZM-17.586,-2.377C-16.918,-10.018 -11.389,-15.734 -3.707,-15.734C3.977,-15.734 7.773,-10.018 7.189,-3.293C7.074,-2.014 6.834,-0.822 6.594,0.322L-10.188,0.322C-9.96,2.426 -8.082,4.486 -3.645,4.486C-0.814,4.486 1.877,3.57 4.648,2.199L4.055,8.967C1.006,10.387 -2.113,10.98 -4.811,10.98C-13.314,10.98 -18.281,5.533 -17.586,-2.377" style="fill:white;fill-rule:nonzero;"/>
            </g>
            <g transform="matrix(1,0,0,1,547.335,316.1265)">
                <path d="M0,-25.064L-0.367,-20.81C1.285,-24.011 4.305,-25.615 7.506,-25.615C10.89,-25.615 13.525,-23.877 14.504,-20.445C16.184,-23.923 19.393,-25.615 22.736,-25.615C27.35,-25.615 30.861,-22.365 30.297,-15.914L28.856,0.551L21.633,0.551L22.955,-14.544C23.209,-17.472 22.102,-19.484 19.316,-19.484C16.529,-19.484 14.971,-17.425 14.719,-14.544L13.4,0.551L6.173,0.551L7.496,-14.544C7.756,-17.472 6.652,-19.484 3.861,-19.484C1.068,-19.484 -0.482,-17.425 -0.734,-14.544L-2.059,0.551L-9.278,0.551L-7.041,-25.064L0,-25.064Z" style="fill:white;fill-rule:nonzero;"/>
            </g>
            <g transform="matrix(1,0,0,1,595.04,297.3722)">
                <path d="M0,12.993C3.795,12.993 6.417,10.157 6.74,6.497C7.061,2.841 4.932,0.003 1.133,0.003C-2.656,0.003 -5.289,2.841 -5.607,6.497C-5.928,10.157 -3.797,12.993 0,12.993M14.061,6.497C13.396,14.044 7.312,19.854 -0.602,19.854C-8.514,19.854 -13.583,14.044 -12.92,6.497C-12.262,-1.05 -6.178,-6.861 1.736,-6.861C9.646,-6.861 14.717,-1.05 14.061,6.497" style="fill:white;fill-rule:nonzero;"/>
            </g>
            <g transform="matrix(1,0,0,1,627.8564,310.2759)">
                <path d="M0,-12.813C-4.346,-12.813 -7.004,-10.11 -7.324,-6.407C-7.646,-2.747 -5.463,0 -1.119,0C1.076,0 3.236,-0.69 5.498,-1.375L4.875,5.716C2.563,6.539 0.283,6.951 -2.002,6.951C-10.145,6.951 -15.326,1.416 -14.643,-6.407C-13.959,-14.231 -7.805,-19.764 0.335,-19.764C2.618,-19.764 4.826,-19.354 6.994,-18.532L6.377,-11.438C4.24,-12.126 2.193,-12.813 0,-12.813" style="fill:white;fill-rule:nonzero;"/>
            </g>
            <g transform="matrix(1,0,0,1,647.4463,316.2185)">
                <path d="M0,-25.156L-0.489,-19.623C1.305,-23.371 4.014,-25.615 8.908,-25.615L8.23,-17.838C7.318,-17.929 6.23,-18.021 5.27,-18.021C0.975,-18.021 -0.655,-15.64 -1.061,-10.976L-2.063,0.459L-9.288,0.459L-7.043,-25.156L0,-25.156Z" style="fill:white;fill-rule:nonzero;"/>
            </g>
            <g transform="matrix(1,0,0,1,668.5303,295.862)">
                <path d="M0,16.015C2.152,16.015 4.035,14.367 4.252,11.896L4.492,9.105L0.354,10.429C-1.387,10.982 -2.654,11.896 -2.781,13.359C-2.916,14.87 -1.783,16.015 0,16.015M-2.775,6.499L4.799,4.027C4.544,2.199 3.381,1.419 0.775,1.419C-1.328,1.419 -4.068,1.927 -7.787,3.115L-7.182,-3.796C-3.947,-4.708 -0.781,-5.35 2.193,-5.35C9.969,-5.35 12.58,-0.776 12.011,5.72L10.694,20.816L3.742,20.816L4.023,17.566C2.309,19.945 -0.375,21.365 -3.484,21.365C-8.102,21.365 -10.537,18.343 -10.193,14.413C-9.852,10.525 -6.967,7.87 -2.775,6.499" style="fill:white;fill-rule:nonzero;"/>
            </g>
            <g transform="matrix(1,0,0,1,687.957,293.2075)">
                <path d="M0,15.146L0.94,4.351L-2.944,4.351L-2.376,-2.145L1.515,-2.145L1.911,-6.717L9.3,-8.551L8.739,-2.145L14.315,-2.145L13.747,4.351L8.171,4.351L7.308,14.228C7.136,16.152 7.624,16.837 9.548,16.837C10.507,16.837 11.573,16.656 12.604,16.425L12.013,23.15C10.521,23.47 8.853,23.697 7.114,23.697C0.987,23.697 -0.505,20.91 0,15.146" style="fill:white;fill-rule:nonzero;"/>
            </g>
            <g transform="matrix(1,0,0,1,708.2021,316.6781)">
                <path d="M0,-34.309L7.405,-34.309L6.928,-28.821L-0.48,-28.821L0,-34.309ZM6.553,-25.616L4.312,0L-2.911,0L-0.664,-25.616L6.553,-25.616Z" style="fill:white;fill-rule:nonzero;"/>
            </g>
            <g transform="matrix(1,0,0,1,733.083,310.2759)">
                <path d="M0,-12.813C-4.343,-12.813 -7.002,-10.11 -7.326,-6.407C-7.648,-2.747 -5.463,0 -1.121,0C1.074,0 3.24,-0.69 5.496,-1.375L4.877,5.716C2.563,6.539 0.283,6.951 -2.002,6.951C-10.142,6.951 -15.326,1.416 -14.642,-6.407C-13.961,-14.231 -7.803,-19.764 0.336,-19.764C2.623,-19.764 4.825,-19.354 7,-18.532L6.374,-11.438C4.238,-12.126 2.199,-12.813 0,-12.813" style="fill:white;fill-rule:nonzero;"/>
            </g>
            <g transform="matrix(1,0,0,1,766.5566,301.2131)">
                <path d="M0,-1.092C2.56,-1.092 4.522,-2.606 4.767,-5.393C5.028,-8.365 3.04,-9.696 0.753,-9.696L-1.763,-9.696L-2.517,-1.092L0,-1.092ZM1.354,-16.557C8.991,-16.557 12.823,-11.799 12.28,-5.531C11.687,1.24 6.484,5.31 -0.558,5.31L-3.073,5.31L-3.964,15.465L-11.28,15.465L-8.476,-16.557L1.354,-16.557Z" style="fill:white;fill-rule:nonzero;"/>
            </g>
            <g transform="matrix(1,0,0,1,790.999,295.862)">
                <path d="M0,16.015C2.15,16.015 4.033,14.367 4.25,11.896L4.494,9.105L0.354,10.429C-1.381,10.982 -2.654,11.896 -2.785,13.359C-2.916,14.87 -1.781,16.015 0,16.015M-2.779,6.499L4.803,4.027C4.553,2.199 3.383,1.419 0.777,1.419C-1.325,1.419 -4.07,1.927 -7.785,3.115L-7.182,-3.796C-3.947,-4.708 -0.779,-5.35 2.191,-5.35C9.965,-5.35 12.582,-0.776 12.016,5.72L10.691,20.816L3.746,20.816L4.027,17.566C2.313,19.945 -0.375,21.365 -3.482,21.365C-8.102,21.365 -10.533,18.343 -10.189,14.413C-9.854,10.525 -6.967,7.87 -2.779,6.499" style="fill:white;fill-rule:nonzero;"/>
            </g>
            <g transform="matrix(1,0,0,1,816.4658,316.2185)">
                <path d="M0,-25.156L-0.482,-19.623C1.307,-23.371 4.016,-25.615 8.909,-25.615L8.232,-17.838C7.32,-17.929 6.234,-18.021 5.273,-18.021C0.973,-18.021 -0.648,-15.64 -1.061,-10.976L-2.061,0.459L-9.283,0.459L-7.043,-25.156L0,-25.156Z" style="fill:white;fill-rule:nonzero;"/>
            </g>
            <g transform="matrix(1,0,0,1,830.9131,293.2075)">
                <path d="M0,15.146L0.943,4.351L-2.941,4.351L-2.377,-2.145L1.511,-2.145L1.914,-6.717L9.301,-8.551L8.738,-2.145L14.316,-2.145L13.745,4.351L8.168,4.351L7.309,14.228C7.139,16.152 7.625,16.837 9.544,16.837C10.51,16.837 11.574,16.656 12.604,16.425L12.014,23.15C10.525,23.47 8.854,23.697 7.119,23.697C0.986,23.697 -0.506,20.91 0,15.146" style="fill:white;fill-rule:nonzero;"/>
            </g>
            <g transform="matrix(1,0,0,1,857.2549,325.3695)">
                <path d="M0,-34.307L3.019,-18.616L3.786,-13.813L3.881,-13.813L5.536,-18.616L11.48,-34.307L19.068,-34.307L6.008,0L-1.492,0L2.135,-9.604L-2.387,-9.604L-7.682,-34.307L0,-34.307Z" style="fill:white;fill-rule:nonzero;"/>
            </g>
        </g>
        <g id="Guideline">
        </g>
    </g>
</svg>
