<?xml version="1.0" encoding="iso-8859-1"?>
<!-- Generator: Adobe Illustrator 16.0.0, SVG Export Plug-In . SVG Version: 6.00 Build 0)  -->
<!DOCTYPE svg PUBLIC "-//W3C//DTD SVG 1.1//EN" "http://www.w3.org/Graphics/SVG/1.1/DTD/svg11.dtd">
<svg version="1.1" id="&#x5716;&#x5C64;_1" xmlns="http://www.w3.org/2000/svg" xmlns:xlink="http://www.w3.org/1999/xlink" x="0px"
	 y="0px" width="252.308px" height="251.538px" viewBox="0 0 252.308 251.538" style="enable-background:new 0 0 252.308 251.538;"
	 xml:space="preserve">
<g>
	<polygon style="fill:#00B8EE;" points="130.421,8.225 76.171,49.958 77.054,70.028 107.956,57.512 115.609,62.222 130.421,38.759 
		151.609,78.407 153.572,47.464 	"/>
	<path style="fill:#ED1843;" d="M137.386,131.678L73.064,78.409l-66.151,1.47l-4.708,7.276l31.489,19.899l-20.011,80.204
		l19.423,40.557l73.869,15.499l11.186-17.797l20.156-47.732L137.386,131.678z M102.659,237.472l-63.373-17.115L22.37,184.082
		l18.191-72.42l-5.297,72.42l12.655,25.583l63.203,14.615L102.659,237.472z"/>
	<path style="fill:#943F98;" d="M130.028,51.625l-12.36,19.422l-10.3-6.375L80.292,75.859l58.897,48.752l11.637-34.239
		L130.028,51.625z M137.582,119.434l-26.458-23.075l3.749-20.5l12.691,24.13h16.441L137.582,119.434z"/>
	<polygon style="fill:#EE3D96;" points="160.037,52.411 189.967,71.625 216.454,129.224 170.347,173.17 144.638,175.104 
		148.57,117.353 157.886,89.884 	"/>
	<polygon style="fill:#FFCA06;" points="206.938,152.277 173.388,179.646 143.705,182.144 126.4,222.907 173.193,213.491 
		193.009,182.293 	"/>
	<path style="fill:#00AE4D;" d="M229.65,119.169l-31.099,66.314l-21.141,33.747l-42.919,8.493l-5.348,6.074l70.927-4.316
		l50.031-48.758L229.65,119.169z M198.796,221.144l-15.584,0.973l24.513-32.856l19.814-48.323l13.077,39.396L198.796,221.144z"/>
	<polygon style="fill:#FFCA06;" points="166.668,48.936 195.314,67.174 217.828,116.57 227.244,60.749 	"/>
</g>
</svg>
