<svg xmlns="http://www.w3.org/2000/svg" xml:space="preserve" viewBox="0 0 841.9 595.3">
    <g fill="#dc4f73">
        <path d="M470.5 326.3h51.7v-27h-64.8a186 186 0 0 1-10.8-40.2h75.6V165H314.4v262l86.7-15v-21h-46.7v-64.6h73.4c25.5 55.2 65.9 88 115.4 104v-40c-30.1-11.3-55.3-34.8-72.7-64M354.4 191.9h127.8v40.2H354.4zm0 107.4v-40.2h52q4.5 21.5 10.7 40.2zm255.7-93.5h169v26h38.4v-45.2h-47.4l29-21.6h-52.5l-14.4 21.6h-15.4l4-21.6h-52.7l3.9 21.6h-15.4L642.2 165h-52.4l29 21.6h-47.1v45.2h38.4z"/>
        <path d="M759.5 244.6v-33.2H629.9v52.4h129.6zm-91.2-14h52.8v14h-52.8zm-76 157.5-16.5 5.3v36.9l73-22.1 20.5 22.1 73-22.1 19.8 21.4 67.7-41.5zm204.3-54.8v-64H592.3v64h83v5.5h-83V358h83v5.5h-83v19.2h204.3v-19.2h-83V358h83v-19.2h-83v-5.5zm-83-19.2v-25.6h18.2l-7.6 25.6zm44.6 0h-18.8l7.6-25.6h11.2zm-127.5-25.6h11.1l7.6 25.6h-18.7zm33.9 25.6-7.6-25.6h18.2v25.6zm-449-37.3h46.8v-26.9h-46.8V165h-39.9v84.9h-35.3l-15.6 26.9h50.9v123.1h-52.6l-15.6 27h164.2v-27h-56.1zM92.9 198.2l-13-33.2H24.1l33.3 33.2z"/>
        <path d="m125.6 342.3-35.7-59.4 35.4-61.4H39.7l-15.6 27h50.1L20 342.3h32.8v84.6h40v-84.6z"/>
    </g>
</svg>
